STARTFONT 2.1
COMMENT $XConsortium: lubR19.bdf,v 1.4 94/04/02 16:25:25 gildea Exp $
COMMENT  (c) Copyright Bigelow & Holmes 1986, 1985. Lucida is a registered
COMMENT  trademark of Bigelow & Holmes. See LEGAL NOTICE file for terms 
COMMENT  of the license. 
COMMENT  
COMMENT  Translation to ISO8859-2 by Cub Soft;  Petr.Kolar@vslib.cz
COMMENT  
FONT -B&H-LucidaBright-Medium-R-Normal--26-190-100-100-P-149-ISO8859-2
SIZE 19 100 100
FONTBOUNDINGBOX 43 29 -17 -5
STARTPROPERTIES 20
COMMENT Begin LogicalFontDescription
FONTNAME_REGISTRY ""
FOUNDRY "B&H"
FAMILY_NAME "LucidaBright"
WEIGHT_NAME "Medium"
SLANT "R"
SETWIDTH_NAME "Normal"
ADD_STYLE_NAME ""
PIXEL_SIZE 26
POINT_SIZE 190
RESOLUTION_X 100
RESOLUTION_Y 100
SPACING "P"
AVERAGE_WIDTH "149"
CHARSET_REGISTRY "ISO8859"
CHARSET_ENCODING "2"
COMMENT END LogicalFontDescription
COPYRIGHT "Copyright Bigelow & Holmes 1986, 1985., Copyright 1996 Cub Soft"
FONT_ASCENT 24
FONT_DESCENT 6
DEFAULT_CHAR 0
FACE_NAME "Lucida Bright"
ENDPROPERTIES
CHARS 191
STARTCHAR space
ENCODING 32
SWIDTH 333 0
DWIDTH 8 0
BBX 1 1 0 0
BITMAP
00
ENDCHAR
STARTCHAR exclam
ENCODING 33
SWIDTH 265 0
DWIDTH 7 0
BBX 3 19 2 0
BITMAP
e0
e0
e0
e0
e0
e0
e0
e0
e0
40
40
40
40
40
00
00
e0
e0
e0
ENDCHAR
STARTCHAR quotedbl
ENCODING 34
SWIDTH 386 0
DWIDTH 10 0
BBX 7 6 2 13
BITMAP
ee
ee
ee
44
44
44
ENDCHAR
STARTCHAR numbersign
ENCODING 35
SWIDTH 608 0
DWIDTH 16 0
BBX 16 19 0 0
BITMAP
018c
0318
0318
0318
0338
7fff
7fff
0630
0630
0c60
0c60
fffe
fffe
1ce0
18c0
18c0
18c0
39c0
3180
ENDCHAR
STARTCHAR dollar
ENCODING 36
SWIDTH 608 0
DWIDTH 16 0
BBX 12 22 2 -2
BITMAP
0200
0fe0
3a70
7230
7230
7200
7200
7a00
3e00
1f00
0f80
03e0
03f0
02f0
0270
0270
c270
c260
e2c0
7f80
0200
0200
ENDCHAR
STARTCHAR percent
ENCODING 37
SWIDTH 675 0
DWIDTH 18 0
BBX 17 19 0 0
BITMAP
3c0380
660300
c30600
c30e00
c31c00
c33800
c33000
666000
3ce000
01de00
03b300
036180
066180
0e6180
1c6180
386180
306180
603300
e01e00
ENDCHAR
STARTCHAR ampersand
ENCODING 38
SWIDTH 690 0
DWIDTH 18 0
BBX 18 19 0 0
BITMAP
03e000
077000
0e3800
0e3800
0e3800
0e3000
076000
034000
0f8000
33c7c0
63c300
e1e300
e0f300
e07200
f07c00
f03c00
7c3e00
3fef80
0f87c0
ENDCHAR
STARTCHAR apostrophe
ENCODING 39
SWIDTH 265 0
DWIDTH 7 0
BBX 3 7 2 12
BITMAP
e0
e0
60
60
60
c0
80
ENDCHAR
STARTCHAR parenleft
ENCODING 40
SWIDTH 316 0
DWIDTH 8 0
BBX 6 23 1 -4
BITMAP
04
08
18
30
30
70
60
60
e0
e0
e0
e0
e0
e0
e0
60
60
70
30
30
18
08
04
ENDCHAR
STARTCHAR parenright
ENCODING 41
SWIDTH 316 0
DWIDTH 8 0
BBX 6 23 1 -4
BITMAP
80
40
60
30
30
38
18
18
1c
1c
1c
1c
1c
1c
1c
18
18
38
30
30
60
40
80
ENDCHAR
STARTCHAR asterisk
ENCODING 42
SWIDTH 470 0
DWIDTH 12 0
BBX 10 9 1 10
BITMAP
0c00
0c00
4c40
edc0
3200
0e00
1a00
7300
2180
ENDCHAR
STARTCHAR plus
ENCODING 43
SWIDTH 608 0
DWIDTH 16 0
BBX 16 16 0 0
BITMAP
0180
0180
0180
0180
0180
0180
0180
ffff
ffff
0180
0180
0180
0180
0180
0180
0180
ENDCHAR
STARTCHAR comma
ENCODING 44
SWIDTH 265 0
DWIDTH 7 0
BBX 3 9 2 -5
BITMAP
e0
e0
e0
e0
60
60
60
40
c0
ENDCHAR
STARTCHAR minus
ENCODING 45
SWIDTH 608 0
DWIDTH 16 0
BBX 15 2 0 7
BITMAP
fffe
fffe
ENDCHAR
STARTCHAR period
ENCODING 46
SWIDTH 265 0
DWIDTH 7 0
BBX 3 3 2 0
BITMAP
e0
e0
e0
ENDCHAR
STARTCHAR slash
ENCODING 47
SWIDTH 512 0
DWIDTH 13 0
BBX 13 23 0 -4
BITMAP
0018
0038
0030
0070
0060
00e0
00c0
01c0
0180
0380
0300
0700
0600
0e00
0c00
1c00
1800
3800
3000
7000
6000
e000
c000
ENDCHAR
STARTCHAR zero
ENCODING 48
SWIDTH 608 0
DWIDTH 16 0
BBX 13 19 1 0
BITMAP
0f80
18c0
3060
7070
6030
e038
e038
e038
e038
e038
e038
e038
e038
e038
6030
7070
3060
18c0
0f80
ENDCHAR
STARTCHAR one
ENCODING 49
SWIDTH 608 0
DWIDTH 16 0
BBX 10 19 3 0
BITMAP
fe00
1e00
0e00
0e00
0e00
0e00
0e00
0e00
0e00
0e00
0e00
0e00
0e00
0e00
0e00
0e00
0e00
1e00
ffc0
ENDCHAR
STARTCHAR two
ENCODING 50
SWIDTH 608 0
DWIDTH 16 0
BBX 11 19 2 0
BITMAP
3f00
e1c0
c1c0
c0e0
c0e0
00e0
00e0
00c0
0180
0300
0600
0800
1000
2000
6000
4000
ffe0
ffe0
ffe0
ENDCHAR
STARTCHAR three
ENCODING 51
SWIDTH 608 0
DWIDTH 16 0
BBX 11 19 2 0
BITMAP
7f00
e1c0
c0e0
c0e0
00e0
00e0
00c0
0380
3e00
0300
01c0
00e0
00e0
00e0
00e0
c0e0
c1c0
e380
ff00
ENDCHAR
STARTCHAR four
ENCODING 52
SWIDTH 608 0
DWIDTH 16 0
BBX 15 19 0 0
BITMAP
0030
0070
00f0
0170
0370
0270
0470
0870
1870
3070
2070
4070
fffe
fffe
0070
0070
0070
00f8
03fe
ENDCHAR
STARTCHAR five
ENCODING 53
SWIDTH 608 0
DWIDTH 16 0
BBX 10 19 3 0
BITMAP
ffc0
ffc0
ffc0
8000
8000
8000
8000
8000
fc00
0f00
0380
01c0
01c0
01c0
01c0
c1c0
c380
e700
fc00
ENDCHAR
STARTCHAR six
ENCODING 54
SWIDTH 608 0
DWIDTH 16 0
BBX 13 19 1 0
BITMAP
07e0
1870
3030
7030
7000
6000
e000
e7c0
e860
f070
e038
e038
e038
e038
6038
7030
3070
18e0
0f80
ENDCHAR
STARTCHAR seven
ENCODING 55
SWIDTH 608 0
DWIDTH 16 0
BBX 12 19 3 0
BITMAP
fff0
fff0
fff0
0020
0040
00c0
0080
0100
0300
0600
0600
0c00
1c00
1800
3800
3800
3000
7000
7000
ENDCHAR
STARTCHAR eight
ENCODING 56
SWIDTH 608 0
DWIDTH 16 0
BBX 13 19 1 0
BITMAP
0fc0
3870
3038
7038
7038
7038
7830
3e40
0f80
1fc0
33f0
60f0
e078
e038
e038
e038
7070
38e0
1f80
ENDCHAR
STARTCHAR nine
ENCODING 57
SWIDTH 608 0
DWIDTH 16 0
BBX 13 19 1 0
BITMAP
0f80
38c0
7060
6070
e030
e038
e038
e038
e038
7078
30b8
1f38
0038
0030
0070
6070
6060
70c0
3f00
ENDCHAR
STARTCHAR colon
ENCODING 58
SWIDTH 265 0
DWIDTH 7 0
BBX 3 14 2 0
BITMAP
e0
e0
e0
00
00
00
00
00
00
00
00
e0
e0
e0
ENDCHAR
STARTCHAR semicolon
ENCODING 59
SWIDTH 265 0
DWIDTH 7 0
BBX 3 19 2 -5
BITMAP
e0
e0
e0
00
00
00
00
00
00
00
00
00
e0
e0
60
60
60
60
c0
ENDCHAR
STARTCHAR less
ENCODING 60
SWIDTH 608 0
DWIDTH 16 0
BBX 16 16 1 0
BITMAP
0003
0007
001e
0078
01e0
0780
1e00
fc00
7c00
1e00
0780
01e0
0078
001e
0007
0003
ENDCHAR
STARTCHAR equal
ENCODING 61
SWIDTH 608 0
DWIDTH 16 0
BBX 15 7 0 4
BITMAP
fffe
fffe
0000
0000
0000
fffe
fffe
ENDCHAR
STARTCHAR greater
ENCODING 62
SWIDTH 608 0
DWIDTH 16 0
BBX 16 16 0 0
BITMAP
c000
e000
7800
1e00
0780
01e0
0078
003e
003f
0078
01e0
0780
1e00
7800
e000
c000
ENDCHAR
STARTCHAR question
ENCODING 63
SWIDTH 480 0
DWIDTH 12 0
BBX 10 19 1 0
BITMAP
7e00
e380
c1c0
c1c0
c1c0
01c0
0180
0300
0200
0400
0c00
1c00
1c00
1c00
0000
0000
1c00
1c00
1c00
ENDCHAR
STARTCHAR at
ENCODING 64
SWIDTH 873 0
DWIDTH 23 0
BBX 20 19 1 0
BITMAP
007e00
038180
0400c0
080060
107820
20fe10
418410
430410
830410
860c10
861830
863820
866c60
87ccc0
438700
600000
300000
1c0800
07f000
ENDCHAR
STARTCHAR A
ENCODING 65
SWIDTH 744 0
DWIDTH 19 0
BBX 19 19 0 0
BITMAP
004000
00e000
00e000
00f000
017000
017000
023800
023800
023c00
041c00
041c00
080e00
0ffe00
100f00
100700
100780
200380
6003c0
f80fe0
ENDCHAR
STARTCHAR B
ENCODING 66
SWIDTH 609 0
DWIDTH 16 0
BBX 13 19 1 0
BITMAP
ffc0
38e0
3870
3870
3870
3870
3860
38e0
3980
3fc0
39e0
3870
3838
3838
3838
3838
3878
38f0
ffe0
ENDCHAR
STARTCHAR C
ENCODING 67
SWIDTH 695 0
DWIDTH 18 0
BBX 15 19 1 0
BITMAP
03f8
0e1e
3806
3006
7006
6000
e000
e000
e000
e000
e000
e000
f000
7000
7800
3c00
1e02
0ffe
03f8
ENDCHAR
STARTCHAR D
ENCODING 68
SWIDTH 768 0
DWIDTH 20 0
BBX 18 19 1 0
BITMAP
fff800
381e00
380700
380380
380380
380180
3801c0
3801c0
3801c0
3801c0
3801c0
3801c0
3801c0
380180
380380
380300
380600
3c1c00
fff000
ENDCHAR
STARTCHAR E
ENCODING 69
SWIDTH 566 0
DWIDTH 15 0
BBX 14 19 0 0
BITMAP
fff8
3818
3818
3800
3800
3800
3800
3820
3820
3fe0
3820
3820
3800
3800
3800
3800
380c
381c
fffc
ENDCHAR
STARTCHAR F
ENCODING 70
SWIDTH 548 0
DWIDTH 14 0
BBX 12 19 1 0
BITMAP
fff0
3830
3830
3800
3800
3800
3800
3840
3840
3fc0
3840
3840
3800
3800
3800
3800
3800
3800
fe00
ENDCHAR
STARTCHAR G
ENCODING 71
SWIDTH 732 0
DWIDTH 19 0
BBX 17 19 2 0
BITMAP
03f800
0e1e00
380600
300600
700600
700000
e00000
e00000
e00000
e00000
e00000
e03f80
e00e00
700e00
700e00
380e00
180e00
0e0e00
03fc00
ENDCHAR
STARTCHAR H
ENCODING 72
SWIDTH 771 0
DWIDTH 20 0
BBX 18 19 1 0
BITMAP
fe1fc0
380700
380700
380700
380700
380700
380700
380700
380700
3fff00
380700
380700
380700
380700
380700
380700
380700
380700
fe1fc0
ENDCHAR
STARTCHAR I
ENCODING 73
SWIDTH 325 0
DWIDTH 8 0
BBX 7 19 1 0
BITMAP
fe
3c
38
38
38
38
38
38
38
38
38
38
38
38
38
38
38
38
fe
ENDCHAR
STARTCHAR J
ENCODING 74
SWIDTH 422 0
DWIDTH 11 0
BBX 10 23 0 -4
BITMAP
1fc0
0780
0700
0700
0700
0700
0700
0700
0700
0700
0700
0700
0700
0700
0700
0700
0700
0700
0700
c700
c600
ce00
f800
ENDCHAR
STARTCHAR K
ENCODING 75
SWIDTH 708 0
DWIDTH 18 0
BBX 18 19 0 0
BITMAP
fe1f00
380e00
380800
381000
382000
384000
388000
390000
3b0000
3f8000
3bc000
3be000
39e000
38f000
387800
383c00
381e00
380f00
fe3fc0
ENDCHAR
STARTCHAR L
ENCODING 76
SWIDTH 557 0
DWIDTH 14 0
BBX 13 19 1 0
BITMAP
fe00
3800
3800
3800
3800
3800
3800
3800
3800
3800
3800
3800
3800
3800
3800
3818
3818
3838
fff8
ENDCHAR
STARTCHAR M
ENCODING 77
SWIDTH 860 0
DWIDTH 22 0
BBX 21 19 1 0
BITMAP
fc00f8
3c00e0
3e01e0
3e01e0
3e02e0
3702e0
3702e0
3384e0
3384e0
33cce0
31c8e0
31c8e0
31f0e0
30f0e0
30f0e0
3060e0
3060e0
3000e0
fc03f8
ENDCHAR
STARTCHAR N
ENCODING 78
SWIDTH 751 0
DWIDTH 20 0
BBX 18 19 1 0
BITMAP
f807c0
3c0100
3c0100
3e0100
3f0100
378100
338100
33c100
31e100
30f100
307100
307900
303d00
301f00
300f00
300f00
300700
300300
fc0300
ENDCHAR
STARTCHAR O
ENCODING 79
SWIDTH 777 0
DWIDTH 20 0
BBX 18 19 1 0
BITMAP
03f000
0e1c00
380700
300300
700380
700380
e001c0
e001c0
e001c0
e001c0
e001c0
e001c0
e001c0
700380
700380
300300
180700
0e1c00
03f000
ENDCHAR
STARTCHAR P
ENCODING 80
SWIDTH 573 0
DWIDTH 15 0
BBX 13 19 1 0
BITMAP
ffc0
3870
3830
3838
3838
3838
3838
3838
3870
38e0
3fc0
3800
3800
3800
3800
3800
3800
3c00
ff00
ENDCHAR
STARTCHAR Q
ENCODING 81
SWIDTH 778 0
DWIDTH 20 0
BBX 22 23 1 -4
BITMAP
03f000
0e1c00
380700
300300
700380
700380
e001c0
e001c0
e001c0
e001c0
e001c0
e001c0
e001c0
700380
700380
300300
180700
0e1e00
03f800
000c00
0007c0
0001fc
000070
ENDCHAR
STARTCHAR R
ENCODING 82
SWIDTH 679 0
DWIDTH 18 0
BBX 16 19 1 0
BITMAP
ffc0
3870
3830
3838
3838
3838
3838
3830
3860
38c0
3fc0
39c0
38e0
38f0
3870
3878
383c
383e
fe1f
ENDCHAR
STARTCHAR S
ENCODING 83
SWIDTH 542 0
DWIDTH 14 0
BBX 11 19 2 0
BITMAP
1f80
71c0
60c0
e0c0
e000
e000
f000
7c00
3e00
1f80
07c0
03c0
01e0
00e0
c0e0
c0e0
c0c0
e180
7f00
ENDCHAR
STARTCHAR T
ENCODING 84
SWIDTH 663 0
DWIDTH 17 0
BBX 17 19 0 0
BITMAP
ffff80
c1c180
c1c180
01c000
01c000
01c000
01c000
01c000
01c000
01c000
01c000
01c000
01c000
01c000
01c000
01c000
01c000
03e000
0ff800
ENDCHAR
STARTCHAR U
ENCODING 85
SWIDTH 719 0
DWIDTH 19 0
BBX 18 19 0 0
BITMAP
fe0fc0
380300
380300
380300
380300
380300
380300
380300
380300
380300
380300
380300
380300
380300
380300
180200
1c0600
0e0c00
03f000
ENDCHAR
STARTCHAR V
ENCODING 86
SWIDTH 699 0
DWIDTH 18 0
BBX 18 19 0 0
BITMAP
fe07c0
780180
380100
380100
1c0200
1c0200
0e0600
0e0400
0f0400
070800
070800
038800
039000
03d000
01e000
01e000
00e000
00c000
00c000
ENDCHAR
STARTCHAR W
ENCODING 87
SWIDTH 925 0
DWIDTH 24 0
BBX 24 19 0 0
BITMAP
fe081f
781c04
381c04
381c08
381c08
1c2e08
1c2e08
1c2e10
1c4710
0e4710
0e4720
0ec7a0
0e83a0
0783a0
0783c0
0701c0
0301c0
030180
020080
ENDCHAR
STARTCHAR X
ENCODING 88
SWIDTH 657 0
DWIDTH 17 0
BBX 17 19 0 0
BITMAP
ff0f80
3c0200
1c0400
1e0c00
0e0800
0f1000
07a000
03a000
03c000
01e000
01e000
02f000
047000
0c3800
083c00
101c00
301e00
600f00
f83f80
ENDCHAR
STARTCHAR Y
ENCODING 89
SWIDTH 678 0
DWIDTH 18 0
BBX 18 19 0 0
BITMAP
fe07c0
780100
380200
1c0200
1e0400
0e0800
0f0800
079000
03a000
03e000
01c000
01c000
01c000
01c000
01c000
01c000
01c000
01c000
07f000
ENDCHAR
STARTCHAR Z
ENCODING 90
SWIDTH 633 0
DWIDTH 16 0
BBX 13 19 2 0
BITMAP
fff8
e078
c0f0
c0e0
01e0
01c0
03c0
0380
0780
0700
0e00
0e00
1c00
3c00
3800
7800
7018
e018
fff8
ENDCHAR
STARTCHAR bracketleft
ENCODING 91
SWIDTH 316 0
DWIDTH 8 0
BBX 6 23 2 -4
BITMAP
fc
e0
e0
e0
e0
e0
e0
e0
e0
e0
e0
e0
e0
e0
e0
e0
e0
e0
e0
e0
e0
e0
fc
ENDCHAR
STARTCHAR backslash
ENCODING 92
SWIDTH 512 0
DWIDTH 13 0
BBX 13 23 0 -4
BITMAP
c000
e000
6000
7000
3000
3800
1800
1c00
0c00
0e00
0600
0700
0300
0380
0180
01c0
00c0
00e0
0060
0070
0030
0038
0018
ENDCHAR
STARTCHAR bracketright
ENCODING 93
SWIDTH 316 0
DWIDTH 8 0
BBX 6 23 1 -4
BITMAP
fc
1c
1c
1c
1c
1c
1c
1c
1c
1c
1c
1c
1c
1c
1c
1c
1c
1c
1c
1c
1c
1c
fc
ENDCHAR
STARTCHAR asciicircum
ENCODING 94
SWIDTH 608 0
DWIDTH 16 0
BBX 15 17 0 3
BITMAP
0100
0100
0100
0380
0380
06c0
06c0
0c60
0c60
1830
1830
3838
3018
701c
600c
e00e
c006
ENDCHAR
STARTCHAR underscore
ENCODING 95
SWIDTH 500 0
DWIDTH 13 0
BBX 10 2 2 -2
BITMAP
ffc0
ffc0
ENDCHAR
STARTCHAR grave
ENCODING 96
SWIDTH 602 0
DWIDTH 16 0
BBX 6 4 4 15
BITMAP
e0
30
18
0c
ENDCHAR
STARTCHAR a
ENCODING 97
SWIDTH 543 0
DWIDTH 14 0
BBX 12 14 1 0
BITMAP
3f00
7380
61c0
01c0
01c0
1fc0
79c0
61c0
e1c0
e1c0
e1c0
f3c0
7ed0
3c70
ENDCHAR
STARTCHAR b
ENCODING 98
SWIDTH 611 0
DWIDTH 16 0
BBX 14 19 0 0
BITMAP
f800
3800
3800
3800
3800
39e0
3bf8
3e38
383c
381c
381c
381c
381c
381c
381c
3818
3c38
3bf0
31e0
ENDCHAR
STARTCHAR c
ENCODING 99
SWIDTH 509 0
DWIDTH 13 0
BBX 11 14 1 0
BITMAP
0fc0
38e0
7060
7060
e000
e000
e000
e000
e000
f000
7000
7820
3fe0
0fc0
ENDCHAR
STARTCHAR d
ENCODING 100
SWIDTH 642 0
DWIDTH 17 0
BBX 14 19 2 0
BITMAP
01f0
0070
0070
0070
0070
1e70
3f70
70f0
6070
e070
e070
e070
e070
e070
e070
f070
71f0
7f78
1c7c
ENDCHAR
STARTCHAR e
ENCODING 101
SWIDTH 530 0
DWIDTH 14 0
BBX 11 14 1 0
BITMAP
0f00
31c0
70c0
60e0
e0e0
ffe0
e000
e000
e000
f000
7000
7820
3fe0
0f80
ENDCHAR
STARTCHAR f
ENCODING 102
SWIDTH 404 0
DWIDTH 10 0
BBX 10 20 1 0
BITMAP
0f80
18c0
38c0
38c0
3800
3800
ff00
3800
3800
3800
3800
3800
3800
3800
3800
3800
3800
3800
3800
fe00
ENDCHAR
STARTCHAR g
ENCODING 103
SWIDTH 571 0
DWIDTH 15 0
BBX 13 19 1 -5
BITMAP
1ff8
3980
70c0
70e0
70e0
70e0
70e0
30c0
19c0
1f80
7000
7000
7fe0
1ff0
6070
e070
e070
70e0
3f80
ENDCHAR
STARTCHAR h
ENCODING 104
SWIDTH 633 0
DWIDTH 16 0
BBX 15 19 1 0
BITMAP
f800
3800
3800
3800
3800
38e0
3bf0
3e38
3838
3838
3838
3838
3838
3838
3838
3838
3838
3838
fefe
ENDCHAR
STARTCHAR i
ENCODING 105
SWIDTH 307 0
DWIDTH 8 0
BBX 7 19 1 0
BITMAP
38
38
38
00
00
f8
38
38
38
38
38
38
38
38
38
38
38
38
fe
ENDCHAR
STARTCHAR j
ENCODING 106
SWIDTH 346 0
DWIDTH 9 0
BBX 7 24 0 -5
BITMAP
0e
0e
0e
00
00
1e
0e
0e
0e
0e
0e
0e
0e
0e
0e
0e
0e
0e
0e
0e
ce
ce
cc
f8
ENDCHAR
STARTCHAR k
ENCODING 107
SWIDTH 599 0
DWIDTH 16 0
BBX 15 19 1 0
BITMAP
f800
3800
3800
3800
3800
387c
3830
3860
38c0
3980
3b00
3f00
3b80
3bc0
39e0
38f0
3878
383c
fe3e
ENDCHAR
STARTCHAR l
ENCODING 108
SWIDTH 313 0
DWIDTH 8 0
BBX 7 19 1 0
BITMAP
f8
38
38
38
38
38
38
38
38
38
38
38
38
38
38
38
38
38
fe
ENDCHAR
STARTCHAR m
ENCODING 109
SWIDTH 946 0
DWIDTH 25 0
BBX 23 14 1 0
BITMAP
f9f1e0
7bf3f0
3e7e78
3c3c38
383838
383838
383838
383838
383838
383838
383838
383838
383838
fefefe
ENDCHAR
STARTCHAR n
ENCODING 110
SWIDTH 633 0
DWIDTH 16 0
BBX 15 14 1 0
BITMAP
f8e0
7bf0
3e38
3838
3838
3838
3838
3838
3838
3838
3838
3838
3838
fefe
ENDCHAR
STARTCHAR o
ENCODING 111
SWIDTH 602 0
DWIDTH 16 0
BBX 13 14 1 0
BITMAP
0f80
38e0
7070
7070
e038
e038
e038
e038
e038
e038
7070
7070
38e0
0f80
ENDCHAR
STARTCHAR p
ENCODING 112
SWIDTH 642 0
DWIDTH 17 0
BBX 14 19 1 -5
BITMAP
f8e0
7bf8
3e38
383c
381c
381c
381c
381c
381c
381c
3818
3c38
3bf0
39e0
3800
3800
3800
3800
fe00
ENDCHAR
STARTCHAR q
ENCODING 113
SWIDTH 617 0
DWIDTH 16 0
BBX 14 19 2 -5
BITMAP
1e70
3f70
70f0
6070
e070
e070
e070
e070
e070
e070
f070
71f0
7f70
1c70
0070
0070
0070
0070
01fc
ENDCHAR
STARTCHAR r
ENCODING 114
SWIDTH 440 0
DWIDTH 11 0
BBX 10 14 1 0
BITMAP
f9c0
3bc0
3cc0
38c0
3800
3800
3800
3800
3800
3800
3800
3800
3c00
ff00
ENDCHAR
STARTCHAR s
ENCODING 115
SWIDTH 504 0
DWIDTH 13 0
BBX 10 14 2 0
BITMAP
3f00
7380
e180
e180
f000
f800
7f00
3f80
07c0
c1c0
c1c0
c1c0
e380
3f00
ENDCHAR
STARTCHAR t
ENCODING 116
SWIDTH 392 0
DWIDTH 10 0
BBX 9 18 1 0
BITMAP
1800
3800
3800
3800
ff80
3800
3800
3800
3800
3800
3800
3800
3800
3800
3800
3800
1c00
0f80
ENDCHAR
STARTCHAR u
ENCODING 117
SWIDTH 633 0
DWIDTH 16 0
BBX 15 14 0 0
BITMAP
f8f8
3838
3838
3838
3838
3838
3838
3838
3838
3838
3838
38f8
1fbc
0e3e
ENDCHAR
STARTCHAR v
ENCODING 118
SWIDTH 545 0
DWIDTH 14 0
BBX 14 14 0 0
BITMAP
fc3c
7008
7818
3810
3830
1c20
1c20
1e40
0e40
0f80
0780
0700
0300
0300
ENDCHAR
STARTCHAR w
ENCODING 119
SWIDTH 795 0
DWIDTH 21 0
BBX 21 14 0 0
BITMAP
fc30f8
703010
703830
387820
387c20
38dc40
1c9c40
1c8e40
1d0e80
0f0f80
0f0780
0e0700
060300
040200
ENDCHAR
STARTCHAR x
ENCODING 120
SWIDTH 557 0
DWIDTH 14 0
BBX 15 14 0 0
BITMAP
fc3e
7818
3c10
1e30
0e60
0f40
0780
03c0
05e0
08e0
18f0
3078
603c
f87e
ENDCHAR
STARTCHAR y
ENCODING 121
SWIDTH 551 0
DWIDTH 14 0
BBX 14 19 0 -5
BITMAP
fc3c
7008
7818
3810
3c10
1c20
1c20
0e40
0e40
0fc0
0780
0780
0300
0300
0200
0600
0c00
1c00
3c00
ENDCHAR
STARTCHAR z
ENCODING 122
SWIDTH 595 0
DWIDTH 15 0
BBX 12 14 2 0
BITMAP
fff0
c0e0
c1e0
03c0
0380
0780
0f00
0e00
1e00
3c00
3800
7830
f030
fff0
ENDCHAR
STARTCHAR braceleft
ENCODING 123
SWIDTH 343 0
DWIDTH 9 0
BBX 7 23 1 -4
BITMAP
0e
18
30
30
30
38
18
18
18
18
30
c0
30
18
18
18
38
38
30
30
30
18
0e
ENDCHAR
STARTCHAR bar
ENCODING 124
SWIDTH 241 0
DWIDTH 6 0
BBX 2 23 2 -4
BITMAP
c0
c0
c0
c0
c0
c0
c0
c0
c0
c0
c0
c0
c0
c0
c0
c0
c0
c0
c0
c0
c0
c0
c0
ENDCHAR
STARTCHAR braceright
ENCODING 125
SWIDTH 343 0
DWIDTH 9 0
BBX 7 23 1 -4
BITMAP
e0
30
18
18
18
38
38
30
30
30
18
06
18
30
30
30
30
38
18
18
18
30
e0
ENDCHAR
STARTCHAR asciitilde
ENCODING 126
SWIDTH 608 0
DWIDTH 16 0
BBX 15 6 0 5
BITMAP
3800
7e02
4702
83c6
80fc
8078
ENDCHAR
STARTCHAR nobreakspace
ENCODING 160
SWIDTH 333 0
DWIDTH 8 0
BBX 1 1 0 0
BITMAP
00
ENDCHAR
STARTCHAR Aogonek
ENCODING 161
SWIDTH 744 0
DWIDTH 19 0
BBX 19 23 0 -4
BITMAP
004000
00e000
00e000
00f000
017000
017000
023800
023800
023c00
041c00
041c00
080e00
0ffe00
100f00
100700
100780
200380
6003c0
f80fe0
006000
00c000
00c000
007000
ENDCHAR
STARTCHAR breve
ENCODING 162
SWIDTH 602 0
DWIDTH 16 0
BBX 8 4 4 15
BITMAP
81
c3
7e
3c
ENDCHAR
STARTCHAR Lstroke
ENCODING 163
SWIDTH 557 0
DWIDTH 14 0
BBX 14 19 0 0
BITMAP
ff00
3c00
1c00
1c00
1c00
1c00
1c00
1d80
1e00
1c00
7c00
9c00
1c00
1c00
1c00
1c0c
1c0c
3c1c
fffc
ENDCHAR
STARTCHAR currency
ENCODING 164
SWIDTH 608 0
DWIDTH 16 0
BBX 15 15 0 2
BITMAP
8002
4004
37c8
1ff0
1c70
3838
3018
3018
3018
3838
1c70
1ff0
27c8
4004
c006
ENDCHAR
STARTCHAR Lcaron
ENCODING 165
SWIDTH 557 0
DWIDTH 14 0
BBX 13 21 1 0
BITMAP
00e0
00e0
fe60
3860
3860
38c0
3880
3800
3800
3800
3800
3800
3800
3800
3800
3800
3800
3818
3818
3838
fff8
ENDCHAR
STARTCHAR Sacute
ENCODING 166
SWIDTH 542 0
DWIDTH 14 0
BBX 11 24 2 0
BITMAP
00e0
0180
0300
0600
0000
1f80
71c0
60c0
e0c0
e000
e000
f000
7c00
3e00
1f80
07c0
03c0
01e0
00e0
c0e0
c0e0
c0c0
e180
7f00
ENDCHAR
STARTCHAR section
ENCODING 167
SWIDTH 608 0
DWIDTH 16 0
BBX 11 24 2 -5
BITMAP
1f80
71c0
e0c0
e0c0
e000
e000
f000
3c00
3f00
6f80
e3c0
e1c0
e0c0
f8c0
7c80
3f80
1f80
03c0
01e0
00e0
c0e0
c0e0
e1c0
7f00
ENDCHAR
STARTCHAR diaeresis
ENCODING 168
SWIDTH 602 0
DWIDTH 16 0
BBX 7 3 4 16
BITMAP
c6
c6
c6
ENDCHAR
STARTCHAR Scaron
ENCODING 169
SWIDTH 542 0
DWIDTH 14 0
BBX 11 24 2 0
BITMAP
30c0
1980
0f00
0f00
0000
1f80
71c0
60c0
e0c0
e000
e000
f000
7c00
3e00
1f80
07c0
03c0
01e0
00e0
c0e0
c0e0
c0c0
e180
7f00
ENDCHAR
STARTCHAR Scedilla
ENCODING 170
SWIDTH 542 0
DWIDTH 14 0
BBX 11 25 2 -6
BITMAP
1f80
71c0
60c0
e0c0
e000
e000
f000
7c00
3e00
1f80
07c0
03c0
01e0
00e0
c0e0
c0e0
c0c0
e180
7f00
0600
0400
0600
0300
0300
0e00
ENDCHAR
STARTCHAR Tcaron
ENCODING 171
SWIDTH 663 0
DWIDTH 17 0
BBX 17 24 0 0
BITMAP
061800
033000
01e000
01e000
000000
ffff80
c1c180
c1c180
01c000
01c000
01c000
01c000
01c000
01c000
01c000
01c000
01c000
01c000
01c000
01c000
01c000
01c000
03e000
0ff800
ENDCHAR
STARTCHAR Zacute
ENCODING 172
SWIDTH 633 0
DWIDTH 16 0
BBX 13 24 2 0
BITMAP
0070
00c0
0180
0300
0000
fff8
e078
c0f0
c0e0
01e0
01c0
03c0
0380
0780
0700
0e00
0e00
1c00
3c00
3800
7800
7018
e018
fff8
ENDCHAR
STARTCHAR hyphen
ENCODING 173
SWIDTH 325 0
DWIDTH 8 0
BBX 6 2 1 7
BITMAP
fc
fc
ENDCHAR
STARTCHAR Zcaron
ENCODING 174
SWIDTH 633 0
DWIDTH 16 0
BBX 13 24 2 0
BITMAP
1860
0cc0
0780
0780
0000
fff8
e078
c0f0
c0e0
01e0
01c0
03c0
0380
0780
0700
0e00
0e00
1c00
3c00
3800
7800
7018
e018
fff8
ENDCHAR
STARTCHAR Zabovedot
ENCODING 175
SWIDTH 633 0
DWIDTH 16 0
BBX 13 23 2 0
BITMAP
0700
0700
0700
0000
fff8
e078
c0f0
c0e0
01e0
01c0
03c0
0380
0780
0700
0e00
0e00
1c00
3c00
3800
7800
7018
e018
fff8
ENDCHAR
STARTCHAR degree
ENCODING 176
SWIDTH 259 0
DWIDTH 7 0
BBX 4 4 1 15
BITMAP
60
90
90
60
ENDCHAR
STARTCHAR aogonek
ENCODING 177
SWIDTH 543 0
DWIDTH 14 0
BBX 12 18 1 -4
BITMAP
3f00
7380
61c0
01c0
01c0
1fc0
79c0
61c0
e1c0
e1c0
e1c0
f3c0
7ed0
3c70
0600
0c00
0c00
0700
ENDCHAR
STARTCHAR ogonek
ENCODING 178
SWIDTH 602 0
DWIDTH 16 0
BBX 4 4 6 -4
BITMAP
60
c0
c0
70
ENDCHAR
STARTCHAR lstroke
ENCODING 179
SWIDTH 313 0
DWIDTH 8 0
BBX 9 19 0 0
BITMAP
7c00
3c00
1c00
1c00
1c00
1c00
1c00
1d80
1f00
1c00
7c00
9c00
1c00
1c00
1c00
1c00
1c00
3e00
7f00
ENDCHAR
STARTCHAR acute
ENCODING 180
SWIDTH 602 0
DWIDTH 16 0
BBX 6 4 5 15
BITMAP
1c
30
60
c0
ENDCHAR
STARTCHAR lcaron
ENCODING 181
SWIDTH 378 0
DWIDTH 10 0
BBX 9 21 1 0
BITMAP
0380
0380
f980
3980
3980
3b00
3a00
3800
3800
3800
3800
3800
3800
3800
3800
3800
3800
3800
3800
3800
fe00
ENDCHAR
STARTCHAR sacute
ENCODING 182
SWIDTH 504 0
DWIDTH 13 0
BBX 10 19 2 0
BITMAP
01c0
0300
0600
0c00
0000
3f00
7380
e180
e180
f000
f800
7f00
3f80
07c0
c1c0
c1c0
c1c0
e380
3f00
ENDCHAR
STARTCHAR caron
ENCODING 183
SWIDTH 602 0
DWIDTH 16 0
BBX 8 4 4 15
BITMAP
c3
66
3c
3c
ENDCHAR
STARTCHAR cedilla
ENCODING 184
SWIDTH 602 0
DWIDTH 16 0
BBX 4 6 6 -5
BITMAP
60
40
60
30
30
e0
ENDCHAR
STARTCHAR scaron
ENCODING 185
SWIDTH 504 0
DWIDTH 13 0
BBX 10 19 2 0
BITMAP
6180
3300
1e00
1e00
0000
3f00
7380
e180
e180
f000
f800
7f00
3f80
07c0
c1c0
c1c0
c1c0
e380
3f00
ENDCHAR
STARTCHAR scedilla
ENCODING 186
SWIDTH 504 0
DWIDTH 13 0
BBX 10 20 2 -6
BITMAP
3f00
7380
e180
e180
f000
f800
7f00
3f80
07c0
c1c0
c1c0
c1c0
e380
3f00
0c00
0800
0c00
0600
0600
1c00
ENDCHAR
STARTCHAR tcaron
ENCODING 187
SWIDTH 392 0
DWIDTH 10 0
BBX 9 22 1 0
BITMAP
0380
0380
0180
0180
1980
3b00
3a00
3800
ff80
3800
3800
3800
3800
3800
3800
3800
3800
3800
3800
3800
1c00
0f80
ENDCHAR
STARTCHAR zacute
ENCODING 188
SWIDTH 595 0
DWIDTH 15 0
BBX 12 19 2 0
BITMAP
00e0
0180
0300
0600
0000
fff0
c0e0
c1e0
03c0
0380
0780
0f00
0e00
1e00
3c00
3800
7830
f030
fff0
ENDCHAR
STARTCHAR doubleacute
ENCODING 189
SWIDTH 602 0
DWIDTH 16 0
BBX 8 4 5 15
BITMAP
1b
24
48
90
ENDCHAR
STARTCHAR zcaron
ENCODING 190
SWIDTH 595 0
DWIDTH 15 0
BBX 12 19 2 0
BITMAP
30c0
1980
0f00
0f00
0000
fff0
c0e0
c1e0
03c0
0380
0780
0f00
0e00
1e00
3c00
3800
7830
f030
fff0
ENDCHAR
STARTCHAR zabovedot
ENCODING 191
SWIDTH 595 0
DWIDTH 15 0
BBX 12 18 2 0
BITMAP
0e00
0e00
0e00
0000
fff0
c0e0
c1e0
03c0
0380
0780
0f00
0e00
1e00
3c00
3800
7830
f030
fff0
ENDCHAR
STARTCHAR Racute
ENCODING 192
SWIDTH 679 0
DWIDTH 18 0
BBX 16 24 1 0
BITMAP
00e0
0180
0300
0600
0000
ffc0
3870
3830
3838
3838
3838
3838
3830
3860
38c0
3fc0
39c0
38e0
38f0
3870
3878
383c
383e
fe1f
ENDCHAR
STARTCHAR Aacute
ENCODING 193
SWIDTH 744 0
DWIDTH 19 0
BBX 19 24 0 0
BITMAP
003800
006000
00c000
018000
000000
004000
00e000
00e000
00f000
017000
017000
023800
023800
023c00
041c00
041c00
080e00
0ffe00
100f00
100700
100780
200380
6003c0
f80fe0
ENDCHAR
STARTCHAR Acircumflex
ENCODING 194
SWIDTH 744 0
DWIDTH 19 0
BBX 19 24 0 0
BITMAP
01e000
01e000
033000
061800
000000
004000
00e000
00e000
00f000
017000
017000
023800
023800
023c00
041c00
041c00
080e00
0ffe00
100f00
100700
100780
200380
6003c0
f80fe0
ENDCHAR
STARTCHAR Abreve
ENCODING 195
SWIDTH 744 0
DWIDTH 19 0
BBX 19 24 0 0
BITMAP
020400
030c00
01f800
00f000
000000
004000
00e000
00e000
00f000
017000
017000
023800
023800
023c00
041c00
041c00
080e00
0ffe00
100f00
100700
100780
200380
6003c0
f80fe0
ENDCHAR
STARTCHAR Adiaeresis
ENCODING 196
SWIDTH 744 0
DWIDTH 19 0
BBX 19 23 0 0
BITMAP
031800
031800
031800
000000
004000
00e000
00e000
00f000
017000
017000
023800
023800
023c00
041c00
041c00
080e00
0ffe00
100f00
100700
100780
200380
6003c0
f80fe0
ENDCHAR
STARTCHAR Lacute
ENCODING 197
SWIDTH 557 0
DWIDTH 14 0
BBX 13 24 1 0
BITMAP
0380
0600
0c00
1800
0000
fe00
3800
3800
3800
3800
3800
3800
3800
3800
3800
3800
3800
3800
3800
3800
3818
3818
3838
fff8
ENDCHAR
STARTCHAR Cacute
ENCODING 198
SWIDTH 695 0
DWIDTH 18 0
BBX 15 24 1 0
BITMAP
001c
0030
0060
00c0
0000
03f8
0e1e
3806
3006
7006
6000
e000
e000
e000
e000
e000
e000
f000
7000
7800
3c00
1e02
0ffe
03f8
ENDCHAR
STARTCHAR Ccedilla
ENCODING 199
SWIDTH 695 0
DWIDTH 18 0
BBX 15 24 1 -5
BITMAP
03f8
0e1e
3806
3006
7006
6000
e000
e000
e000
e000
e000
e000
f000
7000
7800
3c00
1e02
0ffe
03f8
0100
0180
00c0
00c0
0380
ENDCHAR
STARTCHAR Ccaron
ENCODING 200
SWIDTH 695 0
DWIDTH 18 0
BBX 15 24 1 0
BITMAP
0618
0330
01e0
01e0
0000
03f8
0e1e
3806
3006
7006
6000
e000
e000
e000
e000
e000
e000
f000
7000
7800
3c00
1e02
0ffe
03f8
ENDCHAR
STARTCHAR Eacute
ENCODING 201
SWIDTH 566 0
DWIDTH 15 0
BBX 14 24 0 0
BITMAP
01c0
0300
0600
0c00
0000
fff8
3818
3818
3800
3800
3800
3800
3820
3820
3fe0
3820
3820
3800
3800
3800
3800
380c
381c
fffc
ENDCHAR
STARTCHAR Eogonek
ENCODING 202
SWIDTH 566 0
DWIDTH 15 0
BBX 14 23 0 -4
BITMAP
fff8
3818
3818
3800
3800
3800
3800
3820
3820
3fe0
3820
3820
3800
3800
3800
3800
380c
381c
fffc
0300
0600
0600
0380
ENDCHAR
STARTCHAR Ediaeresis
ENCODING 203
SWIDTH 566 0
DWIDTH 15 0
BBX 14 23 0 0
BITMAP
0c60
0c60
0c60
0000
fff8
3818
3818
3800
3800
3800
3800
3820
3820
3fe0
3820
3820
3800
3800
3800
3800
380c
381c
fffc
ENDCHAR
STARTCHAR Ecaron
ENCODING 204
SWIDTH 566 0
DWIDTH 15 0
BBX 14 24 0 0
BITMAP
1860
0cc0
0780
0780
0000
fff8
3818
3818
3800
3800
3800
3800
3820
3820
3fe0
3820
3820
3800
3800
3800
3800
380c
381c
fffc
ENDCHAR
STARTCHAR Iacute
ENCODING 205
SWIDTH 325 0
DWIDTH 8 0
BBX 7 24 1 0
BITMAP
0e
18
30
60
00
fe
3c
38
38
38
38
38
38
38
38
38
38
38
38
38
38
38
38
fe
ENDCHAR
STARTCHAR Icircumflex
ENCODING 206
SWIDTH 325 0
DWIDTH 8 0
BBX 8 24 2 0
BITMAP
3c
3c
66
c3
00
7f
1e
1c
1c
1c
1c
1c
1c
1c
1c
1c
1c
1c
1c
1c
1c
1c
1c
7f
ENDCHAR
STARTCHAR Dcaron
ENCODING 207
SWIDTH 768 0
DWIDTH 20 0
BBX 18 24 1 0
BITMAP
0c3000
066000
03c000
03c000
000000
fff800
381e00
380700
380380
380380
380180
3801c0
3801c0
3801c0
3801c0
3801c0
3801c0
3801c0
380180
380380
380300
380600
3c1c00
fff000
ENDCHAR
STARTCHAR Dstroke
ENCODING 208
SWIDTH 768 0
DWIDTH 20 0
BBX 19 19 0 0
BITMAP
fff800
3c0f00
1c0380
1c01c0
1c01c0
1c00c0
1c00e0
1c00e0
1c00e0
ffc0e0
1c00e0
1c00e0
1c00e0
1c00c0
1c01c0
1c0180
1c0300
3e0e00
fff800
ENDCHAR
STARTCHAR Nacute
ENCODING 209
SWIDTH 751 0
DWIDTH 20 0
BBX 18 24 1 0
BITMAP
001c00
003000
006000
00c000
000000
f807c0
3c0100
3c0100
3e0100
3f0100
378100
338100
33c100
31e100
30f100
307100
307900
303d00
301f00
300f00
300f00
300700
300300
fc0300
ENDCHAR
STARTCHAR Ncaron
ENCODING 210
SWIDTH 751 0
DWIDTH 20 0
BBX 18 24 1 0
BITMAP
061800
033000
01e000
01e000
000000
f807c0
3c0100
3c0100
3e0100
3f0100
378100
338100
33c100
31e100
30f100
307100
307900
303d00
301f00
300f00
300f00
300700
300300
fc0300
ENDCHAR
STARTCHAR Oacute
ENCODING 211
SWIDTH 777 0
DWIDTH 20 0
BBX 18 24 1 0
BITMAP
007000
00c000
018000
030000
000000
03f000
0e1c00
380700
300300
700380
700380
e001c0
e001c0
e001c0
e001c0
e001c0
e001c0
e001c0
700380
700380
300300
180700
0e1c00
03f000
ENDCHAR
STARTCHAR Ocircumflex
ENCODING 212
SWIDTH 777 0
DWIDTH 20 0
BBX 18 24 1 0
BITMAP
01e000
01e000
033000
061800
000000
03f000
0e1c00
380700
300300
700380
700380
e001c0
e001c0
e001c0
e001c0
e001c0
e001c0
e001c0
700380
700380
300300
180700
0e1c00
03f000
ENDCHAR
STARTCHAR Odoubleacute
ENCODING 213
SWIDTH 777 0
DWIDTH 20 0
BBX 18 24 1 0
BITMAP
003600
004800
009000
012000
000000
03f000
0e1c00
380700
300300
700380
700380
e001c0
e001c0
e001c0
e001c0
e001c0
e001c0
e001c0
700380
700380
300300
180700
0e1c00
03f000
ENDCHAR
STARTCHAR Odiaeresis
ENCODING 214
SWIDTH 777 0
DWIDTH 20 0
BBX 18 23 1 0
BITMAP
063000
063000
063000
000000
03f000
0e1c00
380700
300300
700380
700380
e001c0
e001c0
e001c0
e001c0
e001c0
e001c0
e001c0
700380
700380
300300
180700
0e1c00
03f000
ENDCHAR
STARTCHAR multiply
ENCODING 215
SWIDTH 608 0
DWIDTH 16 0
BBX 15 16 0 0
BITMAP
4004
e00e
701c
3838
1c70
0c60
06c0
0380
0380
07c0
0ee0
1c70
3838
701c
e00e
c006
ENDCHAR
STARTCHAR Rcaron
ENCODING 216
SWIDTH 679 0
DWIDTH 18 0
BBX 16 24 1 0
BITMAP
30c0
1980
0f00
0f00
0000
ffc0
3870
3830
3838
3838
3838
3838
3830
3860
38c0
3fc0
39c0
38e0
38f0
3870
3878
383c
383e
fe1f
ENDCHAR
STARTCHAR Uring
ENCODING 217
SWIDTH 719 0
DWIDTH 19 0
BBX 18 24 0 0
BITMAP
00c000
012000
012000
00c000
000000
fe0fc0
380300
380300
380300
380300
380300
380300
380300
380300
380300
380300
380300
380300
380300
380300
180200
1c0600
0e0c00
03f000
ENDCHAR
STARTCHAR Uacute
ENCODING 218
SWIDTH 719 0
DWIDTH 19 0
BBX 18 24 0 0
BITMAP
007000
00c000
018000
030000
000000
fe0fc0
380300
380300
380300
380300
380300
380300
380300
380300
380300
380300
380300
380300
380300
380300
180200
1c0600
0e0c00
03f000
ENDCHAR
STARTCHAR Udoubleacute
ENCODING 219
SWIDTH 719 0
DWIDTH 19 0
BBX 18 24 0 0
BITMAP
003600
004800
009000
012000
000000
fe0fc0
380300
380300
380300
380300
380300
380300
380300
380300
380300
380300
380300
380300
380300
380300
180200
1c0600
0e0c00
03f000
ENDCHAR
STARTCHAR Udiaeresis
ENCODING 220
SWIDTH 719 0
DWIDTH 19 0
BBX 18 23 0 0
BITMAP
031800
031800
031800
000000
fe0fc0
380300
380300
380300
380300
380300
380300
380300
380300
380300
380300
380300
380300
380300
380300
180200
1c0600
0e0c00
03f000
ENDCHAR
STARTCHAR Yacute
ENCODING 221
SWIDTH 678 0
DWIDTH 18 0
BBX 18 24 0 0
BITMAP
007000
00c000
018000
030000
000000
fe07c0
780100
380200
1c0200
1e0400
0e0800
0f0800
079000
03a000
03e000
01c000
01c000
01c000
01c000
01c000
01c000
01c000
01c000
07f000
ENDCHAR
STARTCHAR Tcedilla
ENCODING 222
SWIDTH 663 0
DWIDTH 17 0
BBX 17 25 0 -6
BITMAP
ffff80
c1c180
c1c180
01c000
01c000
01c000
01c000
01c000
01c000
01c000
01c000
01c000
01c000
01c000
01c000
01c000
01c000
03e000
0ff800
00c000
008000
00c000
006000
006000
01c000
ENDCHAR
STARTCHAR ssharp
ENCODING 223
SWIDTH 614 0
DWIDTH 16 0
BBX 13 20 1 0
BITMAP
0f80
19c0
38e0
38e0
38e0
38c0
3980
3900
3b00
3b80
3bc0
39e0
39f0
38f0
3878
3818
3818
3b18
3b30
fbe0
ENDCHAR
STARTCHAR racute
ENCODING 224
SWIDTH 440 0
DWIDTH 11 0
BBX 10 19 1 0
BITMAP
01c0
0300
0600
0c00
0000
f9c0
3bc0
3cc0
38c0
3800
3800
3800
3800
3800
3800
3800
3800
3c00
ff00
ENDCHAR
STARTCHAR aacute
ENCODING 225
SWIDTH 543 0
DWIDTH 14 0
BBX 12 19 1 0
BITMAP
0380
0600
0c00
1800
0000
3f00
7380
61c0
01c0
01c0
1fc0
79c0
61c0
e1c0
e1c0
e1c0
f3c0
7ed0
3c70
ENDCHAR
STARTCHAR acircumflex
ENCODING 226
SWIDTH 543 0
DWIDTH 14 0
BBX 12 19 1 0
BITMAP
0f00
0f00
1980
30c0
0000
3f00
7380
61c0
01c0
01c0
1fc0
79c0
61c0
e1c0
e1c0
e1c0
f3c0
7ed0
3c70
ENDCHAR
STARTCHAR abreve
ENCODING 227
SWIDTH 543 0
DWIDTH 14 0
BBX 12 19 1 0
BITMAP
2040
30c0
1f80
0f00
0000
3f00
7380
61c0
01c0
01c0
1fc0
79c0
61c0
e1c0
e1c0
e1c0
f3c0
7ed0
3c70
ENDCHAR
STARTCHAR adiaeresis
ENCODING 228
SWIDTH 543 0
DWIDTH 14 0
BBX 12 18 1 0
BITMAP
3180
3180
3180
0000
3f00
7380
61c0
01c0
01c0
1fc0
79c0
61c0
e1c0
e1c0
e1c0
f3c0
7ed0
3c70
ENDCHAR
STARTCHAR lacute
ENCODING 229
SWIDTH 313 0
DWIDTH 8 0
BBX 8 24 1 0
BITMAP
07
0c
18
30
00
f8
38
38
38
38
38
38
38
38
38
38
38
38
38
38
38
38
38
fe
ENDCHAR
STARTCHAR cacute
ENCODING 230
SWIDTH 509 0
DWIDTH 13 0
BBX 11 19 1 0
BITMAP
00e0
0180
0300
0600
0000
0fc0
38e0
7060
7060
e000
e000
e000
e000
e000
f000
7000
7820
3fe0
0fc0
ENDCHAR
STARTCHAR ccedilla
ENCODING 231
SWIDTH 509 0
DWIDTH 13 0
BBX 11 19 1 -5
BITMAP
0fc0
38e0
7060
7060
e000
e000
e000
e000
e000
f000
7000
7820
3fe0
0fc0
0400
0600
0300
0300
0e00
ENDCHAR
STARTCHAR ccaron
ENCODING 232
SWIDTH 509 0
DWIDTH 13 0
BBX 11 19 1 0
BITMAP
30c0
1980
0f00
0f00
0000
0fc0
38e0
7060
7060
e000
e000
e000
e000
e000
f000
7000
7820
3fe0
0fc0
ENDCHAR
STARTCHAR eacute
ENCODING 233
SWIDTH 530 0
DWIDTH 14 0
BBX 11 19 1 0
BITMAP
0380
0600
0c00
1800
0000
0f00
31c0
70c0
60e0
e0e0
ffe0
e000
e000
e000
f000
7000
7820
3fe0
0f80
ENDCHAR
STARTCHAR eogonek
ENCODING 234
SWIDTH 530 0
DWIDTH 14 0
BBX 11 18 1 -4
BITMAP
0f00
31c0
70c0
60e0
e0e0
ffe0
e000
e000
e000
f000
7000
7820
3fe0
0f80
0600
0c00
0c00
0700
ENDCHAR
STARTCHAR ediaeresis
ENCODING 235
SWIDTH 530 0
DWIDTH 14 0
BBX 11 18 1 0
BITMAP
3180
3180
3180
0000
0f00
31c0
70c0
60e0
e0e0
ffe0
e000
e000
e000
f000
7000
7820
3fe0
0f80
ENDCHAR
STARTCHAR ecaron
ENCODING 236
SWIDTH 530 0
DWIDTH 14 0
BBX 11 19 1 0
BITMAP
30c0
1980
0f00
0f00
0000
0f00
31c0
70c0
60e0
e0e0
ffe0
e000
e000
e000
f000
7000
7820
3fe0
0f80
ENDCHAR
STARTCHAR iacute
ENCODING 237
SWIDTH 307 0
DWIDTH 8 0
BBX 7 19 1 0
BITMAP
0e
18
30
60
00
f8
38
38
38
38
38
38
38
38
38
38
38
38
fe
ENDCHAR
STARTCHAR icircumflex
ENCODING 238
SWIDTH 307 0
DWIDTH 8 0
BBX 8 19 2 0
BITMAP
3c
3c
66
c3
00
7c
1c
1c
1c
1c
1c
1c
1c
1c
1c
1c
1c
1c
7f
ENDCHAR
STARTCHAR dcaron
ENCODING 239
SWIDTH 720 0
DWIDTH 19 0
BBX 16 21 2 0
BITMAP
0007
0007
01f3
0073
0073
0076
0074
1e70
3f70
70f0
6070
e070
e070
e070
e070
e070
e070
f070
71f0
7f78
1c7c
ENDCHAR
STARTCHAR dstroke
ENCODING 240
SWIDTH 682 0
DWIDTH 18 0
BBX 15 19 2 0
BITMAP
01f0
0070
03fe
03fe
0070
1e70
3f70
70f0
6070
e070
e070
e070
e070
e070
e070
f070
71f0
7f78
1c7c
ENDCHAR
STARTCHAR nacute
ENCODING 241
SWIDTH 633 0
DWIDTH 16 0
BBX 15 19 1 0
BITMAP
0070
00c0
0180
0300
0000
f8e0
7bf0
3e38
3838
3838
3838
3838
3838
3838
3838
3838
3838
3838
fefe
ENDCHAR
STARTCHAR ncaron
ENCODING 242
SWIDTH 633 0
DWIDTH 16 0
BBX 15 19 1 0
BITMAP
1860
0cc0
0780
0780
0000
f8e0
7bf0
3e38
3838
3838
3838
3838
3838
3838
3838
3838
3838
3838
fefe
ENDCHAR
STARTCHAR oacute
ENCODING 243
SWIDTH 602 0
DWIDTH 16 0
BBX 13 19 1 0
BITMAP
01c0
0300
0600
0c00
0000
0f80
38e0
7070
7070
e038
e038
e038
e038
e038
e038
7070
7070
38e0
0f80
ENDCHAR
STARTCHAR ocircumflex
ENCODING 244
SWIDTH 602 0
DWIDTH 16 0
BBX 13 19 1 0
BITMAP
0f00
0f00
1980
30c0
0000
0f80
38e0
7070
7070
e038
e038
e038
e038
e038
e038
7070
7070
38e0
0f80
ENDCHAR
STARTCHAR odoubleacute
ENCODING 245
SWIDTH 602 0
DWIDTH 16 0
BBX 13 19 1 0
BITMAP
00d8
0120
0240
0480
0000
0f80
38e0
7070
7070
e038
e038
e038
e038
e038
e038
7070
7070
38e0
0f80
ENDCHAR
STARTCHAR odiaeresis
ENCODING 246
SWIDTH 602 0
DWIDTH 16 0
BBX 13 18 1 0
BITMAP
18c0
18c0
18c0
0000
0f80
38e0
7070
7070
e038
e038
e038
e038
e038
e038
7070
7070
38e0
0f80
ENDCHAR
STARTCHAR division
ENCODING 247
SWIDTH 608 0
DWIDTH 16 0
BBX 15 13 0 1
BITMAP
0380
0380
0380
0000
0000
0000
fffe
fffe
0000
0000
0380
0380
0380
ENDCHAR
STARTCHAR rcaron
ENCODING 248
SWIDTH 440 0
DWIDTH 11 0
BBX 10 19 1 0
BITMAP
6180
3300
1e00
1e00
0000
f9c0
3bc0
3cc0
38c0
3800
3800
3800
3800
3800
3800
3800
3800
3c00
ff00
ENDCHAR
STARTCHAR uring
ENCODING 249
SWIDTH 633 0
DWIDTH 16 0
BBX 15 19 0 0
BITMAP
0300
0480
0480
0300
0000
f8f8
3838
3838
3838
3838
3838
3838
3838
3838
3838
3838
38f8
1fbc
0e3e
ENDCHAR
STARTCHAR uacute
ENCODING 250
SWIDTH 633 0
DWIDTH 16 0
BBX 15 19 0 0
BITMAP
00e0
0180
0300
0600
0000
f8f8
3838
3838
3838
3838
3838
3838
3838
3838
3838
3838
38f8
1fbc
0e3e
ENDCHAR
STARTCHAR udoubleacute
ENCODING 251
SWIDTH 633 0
DWIDTH 16 0
BBX 15 19 0 0
BITMAP
00d8
0120
0240
0480
0000
f8f8
3838
3838
3838
3838
3838
3838
3838
3838
3838
3838
38f8
1fbc
0e3e
ENDCHAR
STARTCHAR udiaeresis
ENCODING 252
SWIDTH 633 0
DWIDTH 16 0
BBX 15 18 0 0
BITMAP
0c60
0c60
0c60
0000
f8f8
3838
3838
3838
3838
3838
3838
3838
3838
3838
3838
38f8
1fbc
0e3e
ENDCHAR
STARTCHAR yacute
ENCODING 253
SWIDTH 551 0
DWIDTH 14 0
BBX 14 24 0 -5
BITMAP
01c0
0300
0600
0c00
0000
fc3c
7008
7818
3810
3c10
1c20
1c20
0e40
0e40
0fc0
0780
0780
0300
0300
0200
0600
0c00
1c00
3c00
ENDCHAR
STARTCHAR tcedilla
ENCODING 254
SWIDTH 392 0
DWIDTH 10 0
BBX 9 24 1 -6
BITMAP
1800
3800
3800
3800
ff80
3800
3800
3800
3800
3800
3800
3800
3800
3800
3800
3800
1c00
0f80
0c00
0800
0c00
0600
0600
1c00
ENDCHAR
STARTCHAR abovedot
ENCODING 255
SWIDTH 602 0
DWIDTH 16 0
BBX 3 3 6 16
BITMAP
e0
e0
e0
ENDCHAR
ENDFONT
